<svg width="398" height="527" viewBox="0 0 398 527" fill="none" xmlns="http://www.w3.org/2000/svg">
<path d="M0.763672 527V0.45459H208.502C248.267 0.45459 282.205 7.56775 310.315 21.7941C338.596 35.849 360.107 55.8173 374.847 81.6989C389.759 107.409 397.215 137.661 397.215 172.456C397.215 207.422 389.674 237.503 374.59 262.699C359.507 287.724 337.653 306.921 309.029 320.29C280.577 333.659 246.125 340.344 205.674 340.344C205.674 312.472 205.674 359.543 205.674 340.344C205.674 313.844 205.674 361.946 205.674 340.344C205.674 328.344 205.674 357.655 205.674 340.344C205.674 322.861 205.674 356.344 205.674 340.344C205.674 324.344 205.674 351.375 205.674 340.344C205.674 320.875 205.674 322.875 205.674 340.344L397.215 527H0.763672Z" fill="#393E41"/>
</svg>
